<svg width="18" height="18" viewBox="0 0 18 18" fill="none" xmlns="http://www.w3.org/2000/svg">
<path d="M15.1087 1.21292H2.87371C1.59449 1.21292 0.553711 2.2535 0.553711 3.53292V11.0205C0.553711 12.297 1.58996 13.3359 2.86547 13.3405V16.7382L7.74845 13.3405H15.1087C16.3879 13.3405 17.4287 12.2997 17.4287 11.0205V3.53292C17.4287 2.2535 16.3879 1.21292 15.1087 1.21292V1.21292ZM16.4399 11.0205C16.4399 11.7544 15.8428 12.3517 15.1087 12.3517H7.43822L3.85424 14.8457V12.3517H2.87371C2.13966 12.3517 1.54248 11.7544 1.54248 11.0205V3.53292C1.54248 2.79876 2.13966 2.20169 2.87371 2.20169H15.1087C15.8428 2.20169 16.4399 2.79876 16.4399 3.53292V11.0205Z" fill="#949494"/>
<path d="M5.07024 4.70668H12.9122V5.69545H5.07024V4.70668Z" fill="#949494"/>
<path d="M5.07024 6.81606H12.9122V7.80482H5.07024V6.81606Z" fill="#949494"/>
<path d="M5.07024 8.92543H12.9122V9.91423H5.07024V8.92543Z" fill="#949494"/>
</svg>
