<svg width="30" height="30" viewBox="0 0 30 30" fill="none" xmlns="http://www.w3.org/2000/svg">
<g clip-path="url(#clip0)">
<path d="M14.9826 0.00137329C14.4449 0.00137329 13.9075 0.0302816 13.3729 0.0879105C12.8828 0.137968 12.3987 0.220063 11.9212 0.319678C11.8288 0.339012 11.7363 0.359411 11.6439 0.380748C8.83019 1.02136 6.26098 2.45996 4.24435 4.52402C4.05682 4.71624 3.87323 4.91416 3.69371 5.1177C-1.75381 11.3717 -1.10006 20.8576 5.15395 26.3051C11.1413 31.5204 20.1539 31.1734 25.7226 25.5132C25.9105 25.321 26.094 25.1231 26.2732 24.9195C28.6773 22.1817 30.0021 18.6621 30 15.0186C30 6.72474 23.2765 0.00131072 14.9826 0.00137329ZM4.91161 5.27489C4.9907 5.19279 5.0728 5.1142 5.15339 5.03461C5.2465 4.943 5.33911 4.8509 5.43422 4.7623C5.51781 4.68421 5.60391 4.60912 5.68951 4.53303C5.78612 4.44743 5.88223 4.36183 5.98135 4.27924C6.06845 4.20565 6.15805 4.13507 6.24715 4.06399C6.34727 3.9839 6.44738 3.90381 6.5505 3.82672C6.6416 3.75814 6.73421 3.69156 6.82732 3.62649C6.93094 3.5524 7.03506 3.47631 7.14068 3.40723C7.23529 3.34316 7.3309 3.28109 7.42701 3.21952C7.53413 3.15094 7.64176 3.08336 7.75038 3.01929C7.84818 2.96091 7.94661 2.90347 8.04572 2.84709C8.15654 2.78402 8.26779 2.72245 8.37961 2.66238C8.47972 2.609 8.57984 2.55675 8.67995 2.5057C8.79408 2.44813 8.90922 2.39257 9.02485 2.338C9.12496 2.29045 9.22908 2.24289 9.3322 2.19784C9.44984 2.14778 9.56897 2.09773 9.68811 2.04767C9.79173 2.00512 9.89485 1.96357 9.99947 1.92353C10.1206 1.87747 10.2433 1.83442 10.3659 1.79137C10.4705 1.75483 10.5751 1.71829 10.6813 1.68375C10.8059 1.6437 10.9315 1.60666 11.0577 1.57012C11.1633 1.53958 11.2679 1.50805 11.3741 1.47951C11.4146 1.469 11.4551 1.46049 11.4957 1.44998C10.014 2.8887 8.91441 4.67426 8.29651 6.64496C7.10839 6.3316 5.95819 5.88897 4.86656 5.32494C4.88308 5.30742 4.8971 5.2899 4.91161 5.27489ZM4.19178 6.08081C5.39423 6.73231 6.66932 7.23977 7.99066 7.59256C7.34291 9.8449 7.0029 12.1745 6.97999 14.518H0.978085C1.08715 11.4277 2.21726 8.46062 4.19178 6.08081ZM4.19178 23.9564C2.21739 21.5765 1.08727 18.6095 0.978085 15.5192H6.97999C7.0029 17.8627 7.34285 20.1923 7.99066 22.4447C6.66939 22.7976 5.39429 23.305 4.19178 23.9564ZM11.371 28.5597C11.2699 28.5342 11.1653 28.5011 11.0612 28.4706C10.9345 28.4336 10.8074 28.3965 10.6823 28.356C10.5766 28.3219 10.4725 28.2854 10.3684 28.2489C10.2453 28.2063 10.1221 28.1628 10.0005 28.1162C9.89635 28.0767 9.79373 28.0351 9.69062 27.9931C9.57098 27.943 9.45134 27.8929 9.3327 27.8429C9.23059 27.7978 9.12897 27.7515 9.02785 27.7037C8.91122 27.6487 8.79508 27.5926 8.67745 27.5345C8.57733 27.4845 8.47722 27.4344 8.3771 27.3799C8.26397 27.3193 8.15184 27.2572 8.03971 27.1931C7.9396 27.1376 7.84449 27.0805 7.74788 27.0224C7.63775 26.9564 7.52963 26.8883 7.4215 26.8187C7.32639 26.7581 7.23128 26.6966 7.13768 26.6335C7.03105 26.5614 6.92543 26.4863 6.82081 26.4112C6.72921 26.3457 6.6376 26.2801 6.5475 26.211C6.44388 26.1329 6.34226 26.0523 6.24114 25.9712C6.15254 25.9006 6.06444 25.8306 5.97784 25.758C5.87773 25.6749 5.78111 25.5883 5.684 25.5022C5.5989 25.4266 5.51331 25.352 5.43021 25.2749C5.3346 25.1858 5.24199 25.0932 5.14889 25.0016C5.06829 24.922 4.9862 24.8434 4.90711 24.7618C4.89259 24.7463 4.87858 24.7303 4.86406 24.7153C5.95563 24.151 7.10583 23.7082 8.29401 23.3948C8.91203 25.3654 10.0115 27.1509 11.4932 28.5897C11.4526 28.5792 11.4116 28.5707 11.371 28.5597ZM14.4821 28.9952C12.3402 28.6909 10.4625 26.4553 9.28114 23.154C10.9891 22.7715 12.7321 22.5664 14.4821 22.5418V28.9952ZM14.4821 21.5406C12.6256 21.565 10.7769 21.7855 8.96678 22.1984C8.33825 20.0267 8.00668 17.7799 7.98115 15.5192H14.4821V21.5406ZM14.4821 14.518H7.98115C8.00661 12.2574 8.33818 10.0105 8.96678 7.83884C10.7769 8.25163 12.6257 8.47213 14.4821 8.4966V14.518ZM14.4821 7.49544C12.732 7.47104 10.9891 7.26587 9.28114 6.88324C10.4625 3.58194 12.3402 1.34636 14.4821 1.04201V7.49544ZM25.7736 6.08081C27.748 8.46068 28.8781 11.4277 28.9873 14.518H22.9854C22.9625 12.1745 22.6226 9.8449 21.9748 7.59256C23.296 7.23959 24.5711 6.73219 25.7736 6.08081ZM18.5904 1.47701C18.6955 1.50304 18.8001 1.53608 18.9042 1.56661C19.0309 1.60366 19.158 1.6407 19.2832 1.68125C19.3888 1.71529 19.4929 1.75183 19.597 1.78837C19.7202 1.83092 19.8433 1.87447 19.9649 1.92102C20.0691 1.96057 20.1717 2.00212 20.2748 2.04416C20.3944 2.09422 20.5141 2.14428 20.6327 2.19434C20.7348 2.23939 20.8364 2.28575 20.9376 2.3335C21.0542 2.38856 21.1703 2.44463 21.288 2.50269C21.3881 2.55275 21.4882 2.60281 21.5883 2.65737C21.7014 2.71794 21.8136 2.78001 21.9257 2.84409C22.0258 2.89965 22.1209 2.95672 22.2175 3.01478C22.3277 3.08086 22.4358 3.14894 22.5439 3.21852C22.639 3.27909 22.7341 3.34066 22.8277 3.40373C22.9344 3.47581 23.0395 3.5504 23.1441 3.62549C23.2362 3.69106 23.3278 3.75714 23.4184 3.82572C23.5215 3.90331 23.6227 3.9839 23.7243 4.06499C23.8124 4.13507 23.901 4.20515 23.9876 4.27824C24.0877 4.36133 24.1843 4.44793 24.2814 4.53403C24.3665 4.60962 24.4521 4.68421 24.5352 4.76129C24.6308 4.8504 24.7234 4.943 24.8165 5.03461C24.8971 5.1142 24.9792 5.19279 25.0583 5.27439C25.0728 5.2899 25.0868 5.30592 25.1014 5.32094C24.0098 5.88521 22.8596 6.32804 21.6714 6.64146C21.0522 4.67056 19.9512 2.8852 18.4682 1.44698C18.5088 1.45749 18.5498 1.466 18.5904 1.47701ZM15.4833 1.04201C17.6252 1.34636 19.5029 3.58194 20.6843 6.88324C18.9763 7.26568 17.2334 7.47085 15.4833 7.49544V1.04201ZM15.4833 8.4966C17.3398 8.47219 19.1885 8.25169 20.9986 7.83884C21.6272 10.0105 21.9587 12.2574 21.9843 14.518H15.4833V8.4966ZM15.4833 15.5192H21.9843C21.9588 17.7799 21.6272 20.0267 20.9986 22.1984C19.1885 21.7856 17.3398 21.5651 15.4833 21.5406V15.5192ZM15.4833 28.9952V22.5418C17.2334 22.5662 18.9763 22.7714 20.6843 23.154C19.5029 26.4553 17.6252 28.6909 15.4833 28.9952ZM25.0538 24.7623C24.9747 24.8439 24.8931 24.9225 24.8125 25.0021C24.7194 25.0937 24.6263 25.1863 24.5307 25.2754C24.4476 25.353 24.362 25.4256 24.2769 25.5032C24.1798 25.5893 24.0832 25.6754 23.9841 25.7585C23.8965 25.8316 23.8074 25.9021 23.7183 25.9732C23.6181 26.0533 23.518 26.1334 23.4149 26.2105C23.3238 26.2791 23.2312 26.3457 23.1381 26.4107C23.0345 26.4848 22.9304 26.5609 22.8247 26.63C22.7301 26.6941 22.6345 26.7561 22.5384 26.8172C22.4313 26.8863 22.3233 26.953 22.2145 27.0174C22.1144 27.076 22.0188 27.1331 21.9202 27.1896C21.8094 27.2527 21.6979 27.3143 21.5858 27.3743C21.4857 27.4277 21.3856 27.48 21.2855 27.531C21.1713 27.5886 21.0562 27.6442 20.9406 27.6987C20.8405 27.7463 20.7363 27.7938 20.6332 27.8389C20.5156 27.8889 20.3964 27.939 20.2773 27.9891C20.1737 28.0311 20.0706 28.0732 19.9664 28.1127C19.8443 28.1592 19.7217 28.2028 19.5985 28.2453C19.4944 28.2819 19.3903 28.3184 19.2847 28.3525C19.1595 28.393 19.0344 28.4301 18.9067 28.4666C18.8021 28.4976 18.697 28.5287 18.5914 28.5572C18.5508 28.5677 18.5103 28.5762 18.4697 28.5867C19.9514 27.148 21.051 25.3625 21.6689 23.3918C22.857 23.7051 24.0072 24.1478 25.0989 24.7118C25.0823 24.7298 25.0683 24.7473 25.0538 24.7623ZM25.7736 23.9564C24.5712 23.3049 23.2961 22.7974 21.9748 22.4447C22.6225 20.1923 22.9625 17.8627 22.9854 15.5192H28.9873C28.8783 18.6095 27.7482 21.5766 25.7736 23.9564Z" fill="#FFBB01"/>
</g>
<defs>
<clipPath id="clip0">
<rect width="30" height="30" fill="white"/>
</clipPath>
</defs>
</svg>
